Screenshots: 
http://postimg.org/image/vyf9lgno3/

General
Complete name                            : C:UsersuserDownloadsTrigg Da Kidd_I'm The Man.mov
Format                                   : MPEG-4
Format profile                           : QuickTime
Codec ID                                 : qt  
File size                                : 273 MiB
Duration                                 : 5mn 12s
Overall bit rate                         : 7 338 Kbps
Encoded date                             : UTC 2012-05-01 17:07:27
Tagged date                              : UTC 2012-05-01 17:07:38
Writing library                          : Apple QuickTime

Video
ID                                       : 2
Format                                   : AVC
Format/Info                              : Advanced Video Codec
Format profile                           : Main@L3.1
Format settings, CABAC                   : No
Format settings, ReFrames                : 2 frames
Format settings, GOP                     : M=2, N=24
Codec ID                                 : avc1
Codec ID/Info                            : Advanced Video Coding
Duration                                 : 5mn 12s
Bit rate                                 : 5 799 Kbps
Width                                    : 1 280 pixels
Height                                   : 720 pixels
Display aspect ratio                     : 16:9
Frame rate mode                          : Constant
Frame rate                               : 23.976 fps
Color space                              : YUV
Chroma subsampling                       : 4:2:0
Bit depth                                : 8 bits
Scan type                                : Progressive
Bits/(Pixel*Frame)                       : 0.262
Stream size                              : 216 MiB (79%)
Language                                 : English
Encoded date                             : UTC 2012-05-01 17:07:13
Tagged date                              : UTC 2012-05-01 17:07:38
Color primaries                          : BT.709
Transfer characteristics                 : BT.709
Matrix coefficients                      : BT.709

Audio
ID                                       : 1
Format                                   : PCM
Format settings, Endianness              : Little
Format settings, Sign                    : Signed
Codec ID                                 : sowt
Duration                                 : 5mn 12s
Bit rate mode                            : Constant
Bit rate                                 : 1 536 Kbps
Channel(s)                               : 2 channels
Channel positions                        : Front: L R
Sampling rate                            : 48.0 KHz
Bit depth                                : 16 bits
Stream size                              : 57.2 MiB (21%)
Language                                 : English
Encoded date                             : UTC 2012-05-01 17:07:13
Tagged date                              : UTC 2012-05-01 17:07:38